<?xml version="1.0" encoding="UTF-8"?>
<svg version="1.1" xmlns="http://www.w3.org/2000/svg" width="400" height="460">
<path d="M0 0 C2.77880859 1.15478516 2.77880859 1.15478516 5.6484375 2.7890625 C6.72343506 3.39355225 7.79843262 3.99804199 8.90600586 4.62084961 C10.06253746 5.28855306 11.2188635 5.95661266 12.375 6.625 C13.5861169 7.31290489 14.797796 7.99982085 16.01000977 8.68579102 C19.68444017 10.77145573 23.34400818 12.88221776 27 15 C28.04172363 15.60279785 29.08344727 16.2055957 30.15673828 16.82666016 C35.06465908 19.67368962 39.96213711 22.5381402 44.85546875 25.41015625 C51.459676 29.27960045 58.10141964 33.08253307 64.75 36.875 C65.6257518 37.37468292 65.6257518 37.37468292 66.51919556 37.88446045 C69.48796371 39.57816928 72.4571963 41.2710615 75.42675781 42.96337891 C81.32801689 46.32652051 87.2269235 49.69378067 93.125 53.0625 C93.70536011 53.39393005 94.28572021 53.72536011 94.88366699 54.0668335 C104.34341559 59.47010248 113.78282822 64.90808706 123.21582031 70.35791016 C130.50764005 74.5682911 137.81005831 78.75980422 145.12155151 82.93591309 C146.86389739 83.93115808 148.60591482 84.92697609 150.34790039 85.92285156 C155.84245816 89.06275007 161.34083293 92.19561961 166.84875488 95.31202698 C169.42610039 96.77088784 172.00161492 98.23296374 174.57696533 99.69534302 C175.80338371 100.39054678 177.03070045 101.08416846 178.25897217 101.77609253 C179.96525326 102.73738718 181.66824101 103.7045203 183.37109375 104.671875 C184.33974365 105.2194043 185.30839355 105.76693359 186.30639648 106.33105469 C187.19528564 106.88180664 188.0841748 107.43255859 189 108 C189.86746038 108.50809708 190.73492077 109.01619415 191.62866783 109.53968811 C195.11240635 113.15414728 194.69747338 116.18271435 194.63491821 121.03393555 C194.64271817 121.95741382 194.65051812 122.88089209 194.65855443 123.83235455 C194.67853639 126.93421222 194.66268534 130.03485145 194.64697266 133.13671875 C194.653746 135.35739866 194.66264753 137.57807296 194.67352295 139.79873657 C194.69635628 145.83590538 194.68746304 151.87264792 194.67162752 157.90982437 C194.65898954 164.22073791 194.67070279 170.53161437 194.67855835 176.8425293 C194.68824448 188.12101707 194.67268308 199.39928794 194.64726166 210.67773235 C194.62492252 220.90536837 194.62880257 231.13272066 194.65185547 241.36035156 C194.67860869 253.23523814 194.68857557 265.1099523 194.67379415 276.98487949 C194.66598939 283.27167641 194.66498635 289.55827782 194.68147659 295.84506226 C194.69589466 301.75491211 194.68594778 307.66422489 194.65700531 313.57401657 C194.65038032 315.74605796 194.65231613 317.91814437 194.66331863 320.090168 C194.67692953 323.04941529 194.65991189 326.00692847 194.63491821 328.96606445 C194.64607182 329.83103892 194.65722543 330.69601339 194.66871703 331.58719921 C194.57300331 337.40651725 194.57300331 337.40651725 191.6154232 340.46980286 C190.75233355 340.97476791 189.88924389 341.47973297 189 342 C188.18104248 342.50063965 187.36208496 343.0012793 186.51831055 343.51708984 C185.64988525 343.99355957 184.78145996 344.4700293 183.88671875 344.9609375 C182.89849121 345.50758057 181.91026367 346.05422363 180.89208984 346.61743164 C179.8345752 347.1974292 178.77706055 347.77742676 177.6875 348.375 C169.0239313 353.17358505 160.41479917 358.04687246 151.875 363.0625 C143.17792953 368.16589808 134.42972666 373.16667977 125.63964844 378.10791016 C118.76081642 381.98325896 111.93475818 385.94220511 105.125 389.9375 C96.96849187 394.72109579 88.7620351 399.40113227 80.5 404 C71.35169763 409.09341748 62.2805513 414.30267034 53.24804688 419.59838867 C43.0204684 425.5892814 32.73475687 431.47574396 22.4296875 437.33203125 C18.5631296 439.53009643 14.71160334 441.74854996 10.8828125 444.01171875 C9.77969727 444.65596802 9.77969727 444.65596802 8.65429688 445.31323242 C7.36039994 446.06992552 6.07195811 446.83608043 4.79101562 447.61450195 C0.96539133 449.83192667 -1.61792261 450.36370565 -6 450 C-8.77880859 448.84521484 -8.77880859 448.84521484 -11.6484375 447.2109375 C-12.72343506 446.60644775 -13.79843262 446.00195801 -14.90600586 445.37915039 C-16.06253746 444.71144694 -17.2188635 444.04338734 -18.375 443.375 C-19.5861169 442.68709511 -20.797796 442.00017915 -22.01000977 441.31420898 C-25.68444017 439.22854427 -29.34400818 437.11778224 -33 435 C-34.56258545 434.09580322 -34.56258545 434.09580322 -36.15673828 433.17333984 C-41.06465908 430.32631038 -45.96213711 427.4618598 -50.85546875 424.58984375 C-57.459676 420.72039955 -64.10141964 416.91746693 -70.75 413.125 C-71.6257518 412.62531708 -71.6257518 412.62531708 -72.51919556 412.11553955 C-75.48796371 410.42183072 -78.4571963 408.7289385 -81.42675781 407.03662109 C-87.32801689 403.67347949 -93.2269235 400.30621933 -99.125 396.9375 C-99.70536011 396.60606995 -100.28572021 396.27463989 -100.88366699 395.9331665 C-110.34341559 390.52989752 -119.78282822 385.09191294 -129.21582031 379.64208984 C-136.50764005 375.4317089 -143.81005831 371.24019578 -151.12155151 367.06408691 C-152.86389739 366.06884192 -154.60591482 365.07302391 -156.34790039 364.07714844 C-161.84245816 360.93724993 -167.34083293 357.80438039 -172.84875488 354.68797302 C-175.42610039 353.22911216 -178.00161492 351.76703626 -180.57696533 350.30465698 C-181.80338371 349.60945322 -183.03070045 348.91583154 -184.25897217 348.22390747 C-185.96525326 347.26261282 -187.66824101 346.2954797 -189.37109375 345.328125 C-190.33974365 344.7805957 -191.30839355 344.23306641 -192.30639648 343.66894531 C-193.19528564 343.11819336 -194.0841748 342.56744141 -195 342 C-195.86746038 341.49190292 -196.73492077 340.98380585 -197.62866783 340.46031189 C-201.11240635 336.84585272 -200.69747338 333.81728565 -200.63491821 328.96606445 C-200.64271817 328.04258618 -200.65051812 327.11910791 -200.65855443 326.16764545 C-200.67853639 323.06578778 -200.66268534 319.96514855 -200.64697266 316.86328125 C-200.653746 314.64260134 -200.66264753 312.42192704 -200.67352295 310.20126343 C-200.69635628 304.16409462 -200.68746304 298.12735208 -200.67162752 292.09017563 C-200.65898954 285.77926209 -200.67070279 279.46838563 -200.67855835 273.1574707 C-200.68824448 261.87898293 -200.67268308 250.60071206 -200.64726166 239.32226765 C-200.62492252 229.09463163 -200.62880257 218.86727934 -200.65185547 208.63964844 C-200.67860869 196.76476186 -200.68857557 184.8900477 -200.67379415 173.01512051 C-200.66598939 166.72832359 -200.66498635 160.44172218 -200.68147659 154.15493774 C-200.69589466 148.24508789 -200.68594778 142.33577511 -200.65700531 136.42598343 C-200.65038032 134.25394204 -200.65231613 132.08185563 -200.66331863 129.909832 C-200.67692953 126.95058471 -200.65991189 123.99307153 -200.63491821 121.03393555 C-200.64607182 120.16896108 -200.65722543 119.30398661 -200.66871703 118.41280079 C-200.57300331 112.59348275 -200.57300331 112.59348275 -197.6154232 109.53019714 C-196.75233355 109.02523209 -195.88924389 108.52026703 -195 108 C-193.77156372 107.24904053 -193.77156372 107.24904053 -192.51831055 106.48291016 C-191.21567261 105.76820557 -191.21567261 105.76820557 -189.88671875 105.0390625 C-188.89889404 104.49266113 -187.91106934 103.94625977 -186.89331055 103.38330078 C-185.83539307 102.80306152 -184.77747559 102.22282227 -183.6875 101.625 C-175.13092676 96.88438892 -166.62342975 92.07721765 -158.1875 87.125 C-149.57119164 82.07271333 -140.92579066 77.07432986 -132.25 72.125 C-131.66568207 71.79163635 -131.08136414 71.45827271 -130.4793396 71.11480713 C-127.5080802 69.4199651 -124.53636728 67.72592016 -121.56445312 66.03222656 C-116.28888953 63.02519137 -111.0172894 60.01122063 -105.74542236 56.99771118 C-102.83299369 55.33292064 -99.92042775 53.66837035 -97.0078125 52.00390625 C-96.43070526 51.67410263 -95.85359802 51.34429901 -95.25900269 51.00450134 C-91.73949621 48.99338547 -88.21933188 46.98342622 -84.69866943 44.97433472 C-71.72806209 37.57250053 -58.77228866 30.14599302 -45.84130859 22.67504883 C-37.40599021 17.80434107 -28.95641608 12.95894977 -20.5 8.125 C-19.57356689 7.59507446 -19.57356689 7.59507446 -18.62841797 7.05444336 C-16.88804962 6.0591133 -15.14716213 5.06469113 -13.40625 4.0703125 C-12.40916016 3.50070801 -11.41207031 2.93110352 -10.38476562 2.34423828 C-6.55893464 0.18770415 -4.45624519 -0.32692163 0 0 Z M-8.8203125 13.5703125 C-10.31715576 14.40961304 -10.31715576 14.40961304 -11.84423828 15.26586914 C-12.92688965 15.87938232 -14.00954102 16.49289551 -15.125 17.125 C-16.24503418 17.75591553 -17.36506836 18.38683105 -18.51904297 19.03686523 C-27.09761231 23.88449696 -35.61669689 28.83126194 -44.11572266 33.81689453 C-51.81831383 38.33012171 -59.57837108 42.73336906 -67.36035156 47.10791016 C-74.23918358 50.98325896 -81.06524182 54.94220511 -87.875 58.9375 C-96.03150813 63.72109579 -104.2379649 68.40113227 -112.5 73 C-121.64170076 78.08974196 -130.70699741 83.29409899 -139.73217773 88.58740234 C-147.81148488 93.32118983 -155.9292453 97.98476893 -164.0625 102.625 C-164.66204498 102.96706482 -165.26158997 103.30912964 -165.87930298 103.66156006 C-168.64710807 105.24034116 -171.41543332 106.81820662 -174.18408203 108.39550781 C-177.45770391 110.26079678 -180.72926612 112.1296529 -184 114 C-181.22262654 116.98885268 -178.56071009 119.01050908 -174.984375 120.9609375 C-173.99332764 121.50733887 -173.00228027 122.05374023 -171.98120117 122.61669922 C-170.91490479 123.19693848 -169.8486084 123.77717773 -168.75 124.375 C-166.46905029 125.63360283 -164.18912627 126.89406605 -161.91015625 128.15625 C-161.33022415 128.47689423 -160.75029205 128.79753845 -160.15278625 129.12789917 C-154.44632891 132.29019755 -148.81239416 135.57046931 -143.1875 138.875 C-134.57137299 143.92759691 -125.92570633 148.92552805 -117.25 153.875 C-116.66634674 154.20803131 -116.08269348 154.54106262 -115.48135376 154.88418579 C-112.51240496 156.57799047 -109.54297977 158.27095762 -106.57324219 159.96337891 C-100.67198311 163.32652051 -94.7730765 166.69378067 -88.875 170.0625 C-88.29463989 170.39393005 -87.71427979 170.72536011 -87.11633301 171.0668335 C-77.65658441 176.47010248 -68.21717178 181.90808706 -58.78417969 187.35791016 C-50.90943315 191.90487977 -43.02138143 196.42823691 -35.125 200.9375 C-34.54461975 201.26894012 -33.9642395 201.60038025 -33.36627197 201.94186401 C-29.24463022 204.29536276 -25.12238449 206.64780253 -21 209 C-16.2912509 211.68677211 -11.58277082 214.37401405 -6.875 217.0625 C-6.29445862 217.39402069 -5.71391724 217.72554138 -5.11578369 218.06710815 C4.34377713 223.47029329 13.78300545 228.90818945 23.21582031 234.35791016 C31.09056685 238.90487977 38.97861857 243.42823691 46.875 247.9375 C47.45538025 248.26894012 48.0357605 248.60038025 48.63372803 248.94186401 C52.75536978 251.29536276 56.87761551 253.64780253 61 256 C65.7087491 258.68677211 70.41722918 261.37401405 75.125 264.0625 C75.70554138 264.39402069 76.28608276 264.72554138 76.88421631 265.06710815 C86.34377713 270.47029329 95.78300545 275.90818945 105.21582031 281.35791016 C113.09056682 285.90487976 120.97861578 290.42824179 128.875 294.9375 C129.45072754 295.26628143 130.02645508 295.59506287 130.61962891 295.93380737 C134.74597832 298.28997773 138.8729512 300.64505497 143 303 C147.39783483 305.50956383 151.79539165 308.01961322 156.19244385 310.5305481 C157.93255917 311.52399735 159.67305899 312.51677303 161.41357422 313.50952148 C167.88213872 317.20301876 174.3232382 320.93777286 180.734375 324.73022461 C182.71252492 326.08148398 182.71252492 326.08148398 184 326 C184 259.34 184 192.68 184 124 C166.132826 133.74573127 148.32987156 143.56143818 130.78051758 153.86914062 C124.0575312 157.81409319 117.29516365 161.68083311 110.5 165.5 C101.6623071 170.46790264 92.89693923 175.54899364 84.15405273 180.68164062 C75.6602555 185.65199771 67.08224855 190.46392116 58.45947266 195.20678711 C52.43984441 198.54080391 46.65438493 202.07665743 41 206 C47.21913317 211.15265368 54.12708163 216.70324759 62 219 C66.88264996 218.36978328 70.06314738 215.83591007 74 213 C75.80365147 211.89870982 77.63129867 210.84719144 79.46435547 209.7956543 C81.61832731 208.55695257 83.75265132 207.28829099 85.88671875 206.015625 C91.98851683 202.39883833 98.15081964 198.88842571 104.3125 195.375 C105.50765621 194.6930452 106.70280591 194.01107897 107.89794922 193.32910156 C111.59801424 191.21831536 115.29895516 189.10906757 119 187 C123.43778922 184.47099362 127.87509274 181.94114116 132.31137085 179.40948486 C134.06944955 178.40668569 135.82829161 177.4052252 137.5871582 176.40380859 C143.43209307 173.06891799 149.22218507 169.68207312 154.91723633 166.09594727 C157.7162005 164.62313632 159.90466331 164.44442675 163 165 C164.61429882 166.61429882 164.12601382 168.36063899 164.12698364 170.59326172 C164.12980347 171.5860614 164.13262329 172.57886108 164.13552856 173.60174561 C164.13249222 175.24907684 164.13249222 175.24907684 164.12939453 176.9296875 C164.13202301 178.65387909 164.13202301 178.65387909 164.13470459 180.41290283 C164.1391259 184.233617 164.13618413 188.05428532 164.1328125 191.875 C164.13348546 194.51676441 164.13445542 197.15852877 164.13571167 199.80029297 C164.13753321 205.34538271 164.13512747 210.89045915 164.13037109 216.43554688 C164.1249285 222.85494744 164.12669117 229.27431625 164.1321975 235.69371605 C164.13727426 241.85800983 164.13674711 248.02228948 164.13381577 254.18658447 C164.13314622 256.8149618 164.13397588 259.44333992 164.13629532 262.07171631 C164.13882019 265.73793723 164.13498357 269.40409622 164.12939453 273.0703125 C164.13141876 274.16853333 164.13344299 275.26675415 164.13552856 276.39825439 C164.13129883 277.88745392 164.13129883 277.88745392 164.12698364 279.40673828 C164.12660662 280.27469025 164.12622959 281.14264221 164.12584114 282.03689575 C164 284 164 284 163 285 C158.48670013 285.3658675 155.88541825 284.77504422 152.04296875 282.4296875 C150.64111328 281.59050781 150.64111328 281.59050781 149.2109375 280.734375 C147.71433594 279.81398438 147.71433594 279.81398438 146.1875 278.875 C144.02599831 277.57862812 141.86319707 276.284421 139.69921875 274.9921875 C138.58981934 274.32670898 137.48041992 273.66123047 136.33740234 272.97558594 C131.11375987 269.88343415 125.80921979 266.94195596 120.5 264 C111.34175306 258.9035578 102.26302501 253.68689407 93.22167969 248.38623047 C85.5920119 243.91721265 77.93022514 239.50638369 70.25 235.125 C69.66568207 234.79163635 69.08136414 234.45827271 68.4793396 234.11480713 C65.5080802 232.4199651 62.53636728 230.72592016 59.56445312 229.03222656 C53.12464014 225.36157718 46.69037884 221.68120089 40.25512695 218.00256348 C38.50866145 217.00425164 36.76215826 216.00600579 35.015625 215.0078125 C34.1505835 214.51341675 34.1505835 214.51341675 33.26806641 214.0090332 C29.72904377 211.98680507 26.18870644 209.96689891 22.64738464 207.94869995 C19.68116606 206.25820925 16.7154488 204.56684065 13.75 202.875 C13.1670517 202.54244202 12.58410339 202.20988403 11.98348999 201.86724854 C3.89754031 197.25211953 -4.15572771 192.58378188 -12.1875 187.875 C-20.24014185 183.1547159 -28.34476422 178.54065335 -36.5 174 C-45.65713548 168.90151124 -54.73692762 163.68692184 -63.77832031 158.38623047 C-74.31900119 152.21210966 -84.92872802 146.16071957 -95.54315186 140.11474609 C-99.31962135 137.96227815 -103.09054137 135.8003813 -106.8578186 133.63186646 C-109.43064047 132.15094165 -112.00478924 130.67233123 -114.57897949 129.19378662 C-115.80611392 128.48809365 -117.03260889 127.78128741 -118.25842285 127.07330322 C-119.96094001 126.09017853 -121.66596729 125.11140465 -123.37109375 124.1328125 C-124.33974365 123.57480957 -125.30839355 123.01680664 -126.30639648 122.44189453 C-128.82488627 121.09373893 -131.32708474 120.00063449 -134 119 C-134.4296875 115.78125 -134.4296875 115.78125 -134 112 C-131.6536621 110.03927195 -129.80332326 108.85873247 -127.125 107.5 C-125.55026383 106.63896646 -123.97608012 105.77692205 -122.40234375 104.9140625 C-121.53593262 104.45032227 -120.66952148 103.98658203 -119.77685547 103.50878906 C-115.78107727 101.33770507 -111.85823819 99.04658709 -107.92773438 96.76000977 C-92.41891956 87.73774039 -76.81301902 78.88159096 -61.22924805 69.98962402 C-48.19868895 62.55424431 -35.17118789 55.11365001 -22.17169189 47.62405396 C-20.47595569 46.64715401 -18.77973148 45.67110131 -17.08349609 44.69506836 C-16.06465332 44.10733643 -15.04581055 43.51960449 -13.99609375 42.9140625 C-13.10075928 42.3979541 -12.2054248 41.8818457 -11.28295898 41.35009766 C-9.48811936 40.28866432 -7.73499745 39.15666497 -6 38 C-1.54291894 37.56538367 1.05570712 38.18820956 4.8515625 40.5 C5.7703418 41.04897949 6.68912109 41.59795898 7.63574219 42.16357422 C8.62219727 42.76959473 9.60865234 43.37561523 10.625 44 C12.78819397 45.29572194 14.95229306 46.58993371 17.1171875 47.8828125 C18.24608398 48.56118164 19.37498047 49.23955078 20.53808594 49.93847656 C25.64932063 52.99541787 30.82610602 55.93797972 36.00317383 58.88162231 C37.76533044 59.88371805 39.52638097 60.88773119 41.28710938 61.89233398 C43.66665642 63.24993897 46.04652593 64.60697496 48.42675781 65.96337891 C84.43561272 86.48491111 84.43561272 86.48491111 99.734375 95.38671875 C103.96455657 97.8437426 108.22500971 100.23225502 112.515625 102.58203125 C113.54510254 103.15800049 114.57458008 103.73396973 115.63525391 104.32739258 C117.57896806 105.41479954 119.53401169 106.48228077 121.50146484 107.52612305 C123.8994988 108.88545929 125.99728598 110.10557295 128 112 C128.5859375 115.875 128.5859375 115.875 128 119 C127.28046143 119.27295898 126.56092285 119.54591797 125.81958008 119.82714844 C123.0466198 120.98060771 120.5052063 122.29738687 117.88671875 123.765625 C116.89889404 124.31847168 115.91106934 124.87131836 114.89331055 125.44091797 C113.83539307 126.03791504 112.77747559 126.63491211 111.6875 127.25 C110.57737549 127.87406738 109.46725098 128.49813477 108.32348633 129.14111328 C99.91126453 133.8853086 91.55805102 138.72679176 83.22631836 143.61083984 C75.59530412 148.08118511 67.93167545 152.49246729 60.25 156.875 C59.38249619 157.37006042 59.38249619 157.37006042 58.49746704 157.87512207 C54.3325182 160.25161462 50.16634483 162.62595597 46 165 C41.56452679 167.52760429 37.12959975 170.0561606 32.69567871 172.58648682 C30.93468223 173.59095732 29.17292075 174.59408628 27.41113281 175.59716797 C20.89058272 179.31753519 14.41731152 183.10409768 8 187 C11.42202773 190.68005371 15.5411643 192.84931039 19.875 195.3125 C20.67808594 195.79267578 21.48117188 196.27285156 22.30859375 196.76757812 C23.09105469 197.21166016 23.87351563 197.65574219 24.6796875 198.11328125 C25.38851074 198.52360596 26.09733398 198.93393066 26.82763672 199.35668945 C30.58931691 200.47065071 33.16543819 198.43382436 36.48168945 196.70996094 C37.35011475 196.22301758 38.21854004 195.73607422 39.11328125 195.234375 C40.59538086 194.40486328 40.59538086 194.40486328 42.10742188 193.55859375 C43.16509766 192.96175781 44.22277344 192.36492187 45.3125 191.75 C46.42044922 191.12738281 47.52839844 190.50476563 48.66992188 189.86328125 C57.15576926 185.07886134 65.57500817 180.18494065 73.97583008 175.25292969 C81.10200613 171.07918435 88.28394033 167.01607916 95.5 163 C104.6491965 157.90616518 113.72199657 152.69771792 122.75415039 147.39941406 C130.01452547 143.1448663 137.30786974 138.95197544 144.61932373 134.78613281 C157.42413817 127.49161839 157.42413817 127.49161839 170.1875 120.125 C170.88222412 119.72635742 171.57694824 119.32771484 172.29272461 118.91699219 C175.7291335 117.04973324 175.7291335 117.04973324 178 114 C177.05253906 113.4738208 177.05253906 113.4738208 176.0859375 112.93701172 C163.39137915 105.87863607 150.75808557 98.73599656 138.22753906 91.38964844 C130.59590259 86.91951323 122.93211797 82.50763191 115.25 78.125 C114.66634674 77.79196869 114.08269348 77.45893738 113.48135376 77.11581421 C110.51240496 75.42200953 107.54297977 73.72904238 104.57324219 72.03662109 C98.67198311 68.67347949 92.7730765 65.30621933 86.875 61.9375 C86.29463989 61.60606995 85.71427979 61.27463989 85.11633301 60.9331665 C75.66171232 55.53282651 66.22731576 50.09796243 56.79956055 44.65087891 C47.60426505 39.34120452 38.39080158 34.06378062 29.16650391 28.8046875 C23.64853274 25.65823676 18.13518946 22.5046477 12.63671875 19.32421875 C11.65936768 18.76049561 10.6820166 18.19677246 9.67504883 17.6159668 C7.85386276 16.56492219 6.03457923 15.51057168 4.2175293 14.45239258 C3.4212915 13.99372803 2.62505371 13.53506348 1.8046875 13.0625 C0.76803955 12.46115234 0.76803955 12.46115234 -0.28955078 11.84765625 C-3.76397906 10.12581569 -5.65656768 11.79038171 -8.8203125 13.5703125 Z M-13.36328125 53.5 C-14.76562012 54.32346924 -14.76562012 54.32346924 -16.19628906 55.16357422 C-17.22463867 55.76959473 -18.25298828 56.37561523 -19.3125 57 C-28.42836363 62.34524835 -37.57080287 67.63896547 -46.75 72.875 C-47.62321396 73.37314209 -47.62321396 73.37314209 -48.5140686 73.88134766 C-51.48753068 75.57746196 -54.46141921 77.27282655 -57.43554688 78.96777344 C-60.96360064 80.97873997 -64.48989487 82.99277539 -68.015625 85.0078125 C-68.59331635 85.33795349 -69.17100769 85.66809448 -69.76620483 86.00823975 C-72.65839842 87.6612246 -75.55027752 89.31475655 -78.44189453 90.96875 C-83.92925497 94.10659928 -89.41893336 97.24010401 -94.91705322 100.35906982 C-97.52554602 101.83914772 -100.13269832 103.32157786 -102.73974609 104.80419922 C-103.98777352 105.51306328 -105.23646305 106.22076302 -106.48583984 106.92724609 C-108.21356452 107.90431384 -109.93887375 108.88564906 -111.6640625 109.8671875 C-112.64842285 110.42519043 -113.6327832 110.98319336 -114.64697266 111.55810547 C-117.07671103 112.92107228 -117.07671103 112.92107228 -119 115 C-115.78547765 117.04487405 -112.55135381 119.05642792 -109.3125 121.0625 C-107.94448242 121.93358398 -107.94448242 121.93358398 -106.54882812 122.82226562 C-105.66259766 123.36689453 -104.77636719 123.91152344 -103.86328125 124.47265625 C-103.05157471 124.98062744 -102.23986816 125.48859863 -101.40356445 126.01196289 C-98.38916242 127.25109799 -97.07327023 127.00752202 -94 126 C-91.46099872 124.83322107 -91.46099872 124.83322107 -88.88671875 123.33203125 C-87.89865234 122.77580078 -86.91058594 122.21957031 -85.89257812 121.64648438 C-84.83490234 121.04126953 -83.77722656 120.43605469 -82.6875 119.8125 C-81.57955078 119.18537109 -80.47160156 118.55824219 -79.33007812 117.91210938 C-70.8612095 113.1036366 -62.44901005 108.19877322 -54.05053711 103.26855469 C-45.67038199 98.35953897 -37.21269246 93.59693756 -28.72265625 88.88085938 C-26.78862289 87.80539223 -24.86227432 86.71597493 -22.94433594 85.61206055 C-20 84 -20 84 -16.62597656 82.50708008 C-13.2956699 80.92167547 -10.69133435 79.52788724 -8 77 C-6.55858549 72.43688711 -6.84772306 68.28925401 -7.25 63.5625 C-7.30414063 62.35400391 -7.35828125 61.14550781 -7.4140625 59.90039062 C-7.55513013 56.92621479 -7.7517297 53.96683005 -8 51 C-9.95073433 51 -11.73981695 52.54275593 -13.36328125 53.5 Z M2 51 C2 59.58 2 68.16 2 77 C7.445 80.031875 7.445 80.031875 13 83.125 C22.63906115 88.51017646 32.20950411 94.00108049 41.73291016 99.58837891 C50.90826121 104.96558235 60.14013817 110.24087281 69.38598633 115.49560547 C70.49353271 116.12611816 71.6010791 116.75663086 72.7421875 117.40625 C73.80276367 118.00695312 74.86333984 118.60765625 75.95605469 119.2265625 C79.64732616 121.37713966 83.23060604 123.68032659 86.78564453 126.04882812 C89.66205728 127.28438535 91.04514608 126.93933921 94 126 C96.23119179 125.02396542 96.23119179 125.02396542 98.390625 123.78515625 C99.18210937 123.34623047 99.97359375 122.90730469 100.7890625 122.45507812 C101.60117187 121.99552734 102.41328125 121.53597656 103.25 121.0625 C104.07757813 120.60681641 104.90515625 120.15113281 105.7578125 119.68164062 C110.08281666 117.55823765 110.08281666 117.55823765 113 114 C111.96166016 113.42838135 111.96166016 113.42838135 110.90234375 112.84521484 C97.48929783 105.45169299 84.1430443 97.97451232 70.93920898 90.21142578 C63.69798512 85.96386417 56.39694652 81.83424305 49.0625 77.75 C39.28877683 72.30523984 29.61429274 66.72041331 20 61 C16.83539002 59.12150647 13.66817808 57.24746766 10.5 55.375 C9.39398438 54.71709473 9.39398438 54.71709473 8.265625 54.04589844 C5.31316671 51.94851559 5.31316671 51.94851559 2 51 Z M-8.8203125 88.5703125 C-9.81804687 89.12976563 -10.81578125 89.68921875 -11.84375 90.265625 C-12.9265625 90.87921875 -14.009375 91.4928125 -15.125 92.125 C-16.24648437 92.75664063 -17.36796875 93.38828125 -18.5234375 94.0390625 C-27.04624352 98.84839234 -35.50184075 103.77059621 -43.93994141 108.72680664 C-52.43561898 113.70464439 -61.01474103 118.52540592 -69.62890625 123.29492188 C-75.19085192 126.38367036 -80.63933954 129.57300635 -86 133 C-83.52079295 135.77339447 -80.79477299 137.40788797 -77.56640625 139.23046875 C-76.45668457 139.86041748 -75.34696289 140.49036621 -74.20361328 141.1394043 C-72.9899143 141.82211255 -71.77620972 142.50481085 -70.5625 143.1875 C-69.30422242 143.90026409 -68.04625195 144.61357058 -66.78857422 145.32739258 C-64.17003056 146.81292687 -61.55017672 148.29610787 -58.92919922 149.77734375 C-53.40372734 152.90119884 -47.88824891 156.04249948 -42.37573242 159.18914795 C-40.62979661 160.18476474 -38.88235339 161.17769649 -37.13476562 162.17041016 C-31.55266022 165.35170364 -26.00970941 168.57902668 -20.52734375 171.9296875 C-19.51784668 172.54303955 -18.50834961 173.1563916 -17.46826172 173.78833008 C-15.58307099 174.93937032 -13.70524874 176.10260054 -11.83642578 177.2800293 C-11.00481934 177.78703369 -10.17321289 178.29403809 -9.31640625 178.81640625 C-8.24048218 179.48845093 -8.24048218 179.48845093 -7.14282227 180.17407227 C-4.3093309 181.26621096 -2.87832326 180.90671041 0 180 C2.53900128 178.83322107 2.53900128 178.83322107 5.11328125 177.33203125 C6.10134766 176.77580078 7.08941406 176.21957031 8.10742188 175.64648438 C9.16509766 175.04126953 10.22277344 174.43605469 11.3125 173.8125 C12.42044922 173.18537109 13.52839844 172.55824219 14.66992188 171.91210938 C23.13450728 167.10606854 31.5434776 162.2053156 39.9362793 157.27514648 C48.48903243 152.26248453 57.1288933 147.41338822 65.8046875 142.6171875 C70.67431625 139.91467102 75.43526167 137.1937589 80 134 C77.63728605 131.38287714 75.16564147 129.82678251 72.08203125 128.13671875 C71.0873584 127.58685303 70.09268555 127.0369873 69.06787109 126.47045898 C67.4564624 125.58789429 67.4564624 125.58789429 65.8125 124.6875 C63.52894823 123.42367961 61.24642068 122.15800709 58.96484375 120.890625 C58.38285217 120.56750839 57.8008606 120.24439178 57.20123291 119.91148376 C51.37698611 116.66953646 45.62213376 113.31366793 39.875 109.9375 C29.09662657 103.61284526 18.24081125 97.43310342 7.33935547 91.32324219 C5.20339112 90.11504695 3.08798033 88.8766078 0.97265625 87.6328125 C-3.46031962 85.19787963 -4.59766019 86.19463769 -8.8203125 88.5703125 Z M-190 124 C-190 190.66 -190 257.32 -190 326 C-172.25061212 316.3185157 -154.56024479 306.57160081 -137.12329102 296.33740234 C-129.52814535 291.88153375 -121.89868761 287.48811306 -114.25 283.125 C-113.66683014 282.79221039 -113.08366028 282.45942078 -112.4828186 282.11654663 C-107.72581227 279.40218099 -102.96720142 276.69063357 -98.20849609 273.97924805 C-89.46579074 268.99755106 -80.72866553 264.00627435 -72 259 C-71.41728333 258.66621338 -70.83456665 258.33242676 -70.23419189 257.98852539 C-66.25538273 255.70914026 -62.28262127 253.41949832 -58.3125 251.125 C-56.76997559 250.24110596 -56.76997559 250.24110596 -55.19628906 249.33935547 C-54.26139648 248.79682129 -53.32650391 248.25428711 -52.36328125 247.6953125 C-51.54126221 247.22109863 -50.71924316 246.74688477 -49.87231445 246.25830078 C-47.85882626 245.12840575 -47.85882626 245.12840575 -47 243 C-50.20166389 240.79446931 -53.46469751 238.70345668 -56.75 236.625 C-58.10158203 235.69107422 -58.10158203 235.69107422 -59.48046875 234.73828125 C-62.36683339 232.95733286 -64.68508747 231.74435661 -68 231 C-72.54220166 232.15777254 -76.09904993 234.45671458 -80 237 C-81.80857145 238.03553744 -83.62100417 239.06436449 -85.4375 240.0859375 C-87.29364387 241.17894089 -89.14773466 242.27543663 -91 243.375 C-93.10872844 244.61568292 -95.21813133 245.85522004 -97.328125 247.09375 C-98.41931641 247.73441406 -99.51050781 248.37507813 -100.63476562 249.03515625 C-106.31794191 252.35336597 -112.03310862 255.61534004 -117.75 258.875 C-118.91268455 259.53840179 -120.07536358 260.20181327 -121.23803711 260.86523438 C-124.20509158 262.55776409 -127.17273382 264.24926056 -130.14056396 265.94042969 C-135.32416246 268.89422158 -140.50715616 271.8490687 -145.68884277 274.80621338 C-147.52675587 275.85461055 -149.36540844 276.9017021 -151.20410156 277.94873047 C-152.86844238 278.8983667 -152.86844238 278.8983667 -154.56640625 279.8671875 C-155.54552979 280.42519043 -156.52465332 280.98319336 -157.53344727 281.55810547 C-159.39240336 282.64481186 -161.20835622 283.80557081 -163 285 C-166.125 285.1875 -166.125 285.1875 -169 285 C-170.61429882 283.38570118 -170.12601382 281.63936101 -170.12698364 279.40673828 C-170.12980347 278.4139386 -170.13262329 277.42113892 -170.13552856 276.39825439 C-170.13350433 275.30003357 -170.1314801 274.20181274 -170.12939453 273.0703125 C-170.13114685 271.92085144 -170.13289917 270.77139038 -170.13470459 269.58709717 C-170.1391259 265.766383 -170.13618413 261.94571468 -170.1328125 258.125 C-170.13348546 255.48323559 -170.13445542 252.84147123 -170.13571167 250.19970703 C-170.13753321 244.65461729 -170.13512747 239.10954085 -170.13037109 233.56445312 C-170.1249285 227.14505256 -170.12669117 220.72568375 -170.1321975 214.30628395 C-170.13727426 208.14199017 -170.13674711 201.97771052 -170.13381577 195.81341553 C-170.13314622 193.1850382 -170.13397588 190.55666008 -170.13629532 187.92828369 C-170.13882019 184.26206277 -170.13498357 180.59590378 -170.12939453 176.9296875 C-170.13141876 175.83146667 -170.13344299 174.73324585 -170.13552856 173.60174561 C-170.13270874 172.60894592 -170.12988892 171.61614624 -170.12698364 170.59326172 C-170.12660662 169.72530975 -170.12622959 168.85735779 -170.12584114 167.96310425 C-170 166 -170 166 -169 165 C-164.48670013 164.6341325 -161.88541825 165.22495578 -158.04296875 167.5703125 C-157.10839844 168.12976563 -156.17382812 168.68921875 -155.2109375 169.265625 C-154.21320313 169.87921875 -153.21546875 170.4928125 -152.1875 171.125 C-150.02599831 172.42137188 -147.86319707 173.715579 -145.69921875 175.0078125 C-144.58981934 175.67329102 -143.48041992 176.33876953 -142.33740234 177.02441406 C-137.11375987 180.11656585 -131.80921979 183.05804404 -126.5 186 C-117.34175306 191.0964422 -108.26302501 196.31310593 -99.22167969 201.61376953 C-91.5920119 206.08278735 -83.93022514 210.49361631 -76.25 214.875 C-75.66568207 215.20836365 -75.08136414 215.54172729 -74.4793396 215.88519287 C-71.5080802 217.5800349 -68.53636728 219.27407984 -65.56445312 220.96777344 C-60.28888953 223.97480863 -55.0172894 226.98877937 -49.74542236 230.00228882 C-46.83299369 231.66707936 -43.92042775 233.33162965 -41.0078125 234.99609375 C-40.43070526 235.32589737 -39.85359802 235.65570099 -39.25900269 235.99549866 C-35.73949621 238.00661453 -32.21933188 240.01657378 -28.69866943 242.02566528 C-15.70896645 249.43839663 -2.73427956 256.87611088 10.21582031 264.35791016 C18.09056685 268.90487977 25.97861857 273.42823691 33.875 277.9375 C34.45538025 278.26894012 35.0357605 278.60038025 35.63372803 278.94186401 C39.75536978 281.29536276 43.87761551 283.64780253 48 286 C61.76272448 293.85289332 75.52257636 301.7104785 89.25 309.625 C90.829021 310.53499756 90.829021 310.53499756 92.43994141 311.46337891 C97.93694054 314.63658115 103.42137997 317.82999287 108.890625 321.05078125 C110.55496582 322.02893799 110.55496582 322.02893799 112.25292969 323.02685547 C114.37565601 324.27591233 116.49619837 325.52869016 118.61425781 326.78564453 C119.55624023 327.33978027 120.49822266 327.89391602 121.46875 328.46484375 C122.29826172 328.955896 123.12777344 329.44694824 123.98242188 329.95288086 C125.91700664 331.15355086 125.91700664 331.15355086 128 331 C128.421875 334.22265625 128.421875 334.22265625 128 338 C125.69547689 339.94567594 123.89135706 341.09729958 121.25 342.4375 C119.68325663 343.29495721 118.11687674 344.15307879 116.55078125 345.01171875 C115.67244629 345.4814209 114.79411133 345.95112305 113.88916016 346.43505859 C108.95408647 349.10818875 104.09966867 351.92340284 99.2336731 354.71957397 C97.42117941 355.75936277 95.60639282 356.795029 93.79077148 357.8293457 C86.10120469 362.21058739 78.44625775 366.64700185 70.8125 371.125 C61.73467799 376.44655976 52.58044707 381.61683677 43.38549805 386.73291016 C34.93411386 391.44690887 26.56544674 396.29369491 18.22851562 401.20703125 C15.49218202 402.81618744 12.74791015 404.4107053 10 406 C9.02256836 406.57363281 8.04513672 407.14726562 7.03808594 407.73828125 C6.07418945 408.28871094 5.11029297 408.83914063 4.1171875 409.40625 C2.82337158 410.15358398 2.82337158 410.15358398 1.50341797 410.91601562 C-1.31533472 412.13654049 -2.96147686 412.39048331 -6 412 C-8.32641602 410.96875 -8.32641602 410.96875 -10.75390625 409.5 C-11.6759082 408.95102051 -12.59791016 408.40204102 -13.54785156 407.83642578 C-14.54268555 407.23040527 -15.53751953 406.62438477 -16.5625 406 C-18.73486246 404.70436233 -20.90807371 403.41014699 -23.08203125 402.1171875 C-23.64654999 401.77968475 -24.21106873 401.44218201 -24.79269409 401.0944519 C-30.48661798 397.69337113 -36.23967449 394.39828274 -42.00418091 391.11837769 C-43.76577287 390.11602518 -45.52644539 389.11207548 -47.28686523 388.10766602 C-49.66650867 386.7500875 -52.04646957 385.39306873 -54.42675781 384.03662109 C-90.43561272 363.51508889 -90.43561272 363.51508889 -105.734375 354.61328125 C-109.96455657 352.1562574 -114.22500971 349.76774498 -118.515625 347.41796875 C-119.54510254 346.84199951 -120.57458008 346.26603027 -121.63525391 345.67260742 C-123.57896806 344.58520046 -125.53401169 343.51771923 -127.50146484 342.47387695 C-129.8994988 341.11454071 -131.99728598 339.89442705 -134 338 C-134.5859375 334.125 -134.5859375 334.125 -134 331 C-133.28046143 330.72704102 -132.56092285 330.45408203 -131.81958008 330.17285156 C-129.0466198 329.01939229 -126.5052063 327.70261313 -123.88671875 326.234375 C-122.89889404 325.68152832 -121.91106934 325.12868164 -120.89331055 324.55908203 C-119.83539307 323.96208496 -118.77747559 323.36508789 -117.6875 322.75 C-116.57737549 322.12593262 -115.46725098 321.50186523 -114.32348633 320.85888672 C-105.91126453 316.1146914 -97.55805102 311.27320824 -89.22631836 306.38916016 C-81.59530412 301.91881489 -73.93167545 297.50753271 -66.25 293.125 C-65.67166412 292.79495972 -65.09332825 292.46491943 -64.49746704 292.12487793 C-60.3325182 289.74838538 -56.16634483 287.37404403 -52 285 C-47.56452679 282.47239571 -43.12959975 279.9438394 -38.69567871 277.41351318 C-36.93468223 276.40904268 -35.17292075 275.40591372 -33.41113281 274.40283203 C-26.89058272 270.68246481 -20.41731152 266.89590232 -14 263 C-17.42202773 259.31994629 -21.5411643 257.15068961 -25.875 254.6875 C-26.67808594 254.20732422 -27.48117188 253.72714844 -28.30859375 253.23242188 C-29.09105469 252.78833984 -29.87351563 252.34425781 -30.6796875 251.88671875 C-31.38851074 251.47639404 -32.09733398 251.06606934 -32.82763672 250.64331055 C-36.58931691 249.52934929 -39.16543819 251.56617564 -42.48168945 253.29003906 C-43.35011475 253.77698242 -44.21854004 254.26392578 -45.11328125 254.765625 C-46.59538086 255.59513672 -46.59538086 255.59513672 -48.10742188 256.44140625 C-49.16509766 257.03824219 -50.22277344 257.63507813 -51.3125 258.25 C-52.42044922 258.87261719 -53.52839844 259.49523437 -54.66992188 260.13671875 C-63.15576926 264.92113866 -71.57500817 269.81505935 -79.97583008 274.74707031 C-87.10200613 278.92081565 -94.28394033 282.98392084 -101.5 287 C-110.6491965 292.09383482 -119.72199657 297.30228208 -128.75415039 302.60058594 C-136.01452547 306.8551337 -143.30786974 311.04802456 -150.61932373 315.21386719 C-163.42413817 322.50838161 -163.42413817 322.50838161 -176.1875 329.875 C-176.88222412 330.27364258 -177.57694824 330.67228516 -178.29272461 331.08300781 C-181.7291335 332.95026676 -181.7291335 332.95026676 -184 336 C-183.36835938 336.35078613 -182.73671875 336.70157227 -182.0859375 337.06298828 C-169.39137915 344.12136393 -156.75808557 351.26400344 -144.22753906 358.61035156 C-136.59590259 363.08048677 -128.93211797 367.49236809 -121.25 371.875 C-120.66634674 372.20803131 -120.08269348 372.54106262 -119.48135376 372.88418579 C-116.51240496 374.57799047 -113.54297977 376.27095762 -110.57324219 377.96337891 C-104.67198311 381.32652051 -98.7730765 384.69378067 -92.875 388.0625 C-92.29463989 388.39393005 -91.71427979 388.72536011 -91.11633301 389.0668335 C-81.66171232 394.46717349 -72.22731576 399.90203757 -62.79956055 405.34912109 C-57.16779295 408.60109404 -51.53168385 411.84522152 -45.88671875 415.07421875 C-45.29151428 415.41475281 -44.69630981 415.75528687 -44.08306885 416.10614014 C-41.11057803 417.80572678 -38.13601099 419.50152353 -35.15771484 421.19091797 C-29.65848361 424.31507624 -24.18800831 427.47055599 -18.77734375 430.74609375 C-17.81803955 431.31884033 -16.85873535 431.89158691 -15.87036133 432.48168945 C-14.09313264 433.54549793 -12.32524754 434.62514131 -10.5690918 435.72338867 C-6.13533679 438.42605996 -6.13533679 438.42605996 -1.10546875 438.6953125 C3.58953728 436.13225261 8.22178369 433.49612616 12.8125 430.75 C21.31635112 425.72263147 29.86433717 420.7974395 38.5 416 C47.65765505 410.90246607 56.73694929 405.68690914 65.77832031 400.38623047 C73.40798976 395.91721168 81.06984655 391.50651115 88.75 387.125 C89.62547989 386.62545303 89.62547989 386.62545303 90.51864624 386.11581421 C93.48759504 384.42200953 96.45702023 382.72904238 99.42675781 381.03662109 C105.32801689 377.67347949 111.22692273 374.306218 117.125 370.9375 C117.70303375 370.60739929 118.2810675 370.27729858 118.87661743 369.93719482 C128.48227769 364.45059439 138.06805118 358.92997522 147.64648438 353.39599609 C157.7450476 347.5635287 167.86817421 341.77445501 178 336 C175.22262654 333.01114732 172.56071009 330.98949092 168.984375 329.0390625 C167.49780396 328.21946045 167.49780396 328.21946045 165.98120117 327.38330078 C164.91490479 326.80306152 163.8486084 326.22282227 162.75 325.625 C160.46905029 324.36639717 158.18912627 323.10593395 155.91015625 321.84375 C155.0402581 321.36278366 155.0402581 321.36278366 154.15278625 320.87210083 C148.44632891 317.70980245 142.81239416 314.42953069 137.1875 311.125 C128.57137299 306.07240309 119.92570633 301.07447195 111.25 296.125 C110.66634674 295.79196869 110.08269348 295.45893738 109.48135376 295.11581421 C106.51240496 293.42200953 103.54297977 291.72904238 100.57324219 290.03662109 C94.67198311 286.67347949 88.7730765 283.30621933 82.875 279.9375 C82.29463989 279.60606995 81.71427979 279.27463989 81.11633301 278.9331665 C71.65658441 273.52989752 62.21717178 268.09191294 52.78417969 262.64208984 C44.90943315 258.09512023 37.02138143 253.57176309 29.125 249.0625 C28.54461975 248.73105988 27.9642395 248.39961975 27.36627197 248.05813599 C23.24463022 245.70463724 19.12238449 243.35219747 15 241 C10.2912509 238.31322789 5.58277082 235.62598595 0.875 232.9375 C0.29445862 232.60597931 -0.28608276 232.27445862 -0.88421631 231.93289185 C-10.34377713 226.52970671 -19.78300545 221.09181055 -29.21582031 215.64208984 C-37.09056685 211.09512023 -44.97861857 206.57176309 -52.875 202.0625 C-53.45538025 201.73105988 -54.0357605 201.39961975 -54.63372803 201.05813599 C-58.75536978 198.70463724 -62.87761551 196.35219747 -67 194 C-71.7087491 191.31322789 -76.41722918 188.62598595 -81.125 185.9375 C-81.70554138 185.60597931 -82.28608276 185.27445862 -82.88421631 184.93289185 C-92.34377713 179.52970671 -101.78300545 174.09181055 -111.21582031 168.64208984 C-119.09056682 164.09512024 -126.97861578 159.57175821 -134.875 155.0625 C-135.73859131 154.56932785 -135.73859131 154.56932785 -136.61962891 154.06619263 C-140.74597832 151.71002227 -144.8729512 149.35494503 -149 147 C-153.39783483 144.49043617 -157.79539165 141.98038678 -162.19244385 139.4694519 C-163.93255917 138.47600265 -165.67305899 137.48322697 -167.41357422 136.49047852 C-173.88213872 132.79698124 -180.3232382 129.06222714 -186.734375 125.26977539 C-188.71252492 123.91851602 -188.71252492 123.91851602 -190 124 Z M-161 178 C-161 209.02 -161 240.04 -161 272 C-157.37 270.02 -153.74 268.04 -150 266 C-146.37 264.02 -142.74 262.04 -139 260 C-139 236.9 -139 213.8 -139 190 C-149.4496971 181.92779897 -149.4496971 181.92779897 -161 178 Z M133 190 C133 213.1 133 236.2 133 260 C143.4496971 268.07220103 143.4496971 268.07220103 155 272 C155 240.98 155 209.96 155 178 C146.64669061 178 140.25270359 185.85559795 133 190 Z M-129 197 C-129 215.48 -129 233.96 -129 253 C-125.15109578 251.46043831 -121.80046977 249.87546331 -118.203125 247.875 C-117.08655518 247.25520264 -115.96998535 246.63540527 -114.81958008 245.99682617 C-113.62951821 245.3315784 -112.43966176 244.66596303 -111.25 244 C-110.65061615 243.66529694 -110.0512323 243.33059387 -109.4336853 242.98574829 C-105.28327901 240.6674627 -101.13997594 238.33686096 -97 236 C-96.03465332 235.45520996 -95.06930664 234.91041992 -94.07470703 234.34912109 C-91.64769092 232.97247687 -89.22815197 231.58396577 -86.8125 230.1875 C-86.10706055 229.78595703 -85.40162109 229.38441406 -84.67480469 228.97070312 C-83.08141766 228.0380286 -81.53386719 227.02762612 -80 226 C-80 225.34 -80 224.68 -80 224 C-80.74870361 223.57291748 -81.49740723 223.14583496 -82.26879883 222.70581055 C-85.14099479 221.06703789 -88.01288471 219.42773126 -90.88458252 217.78808594 C-92.16649474 217.05628358 -93.4485173 216.32467446 -94.73065186 215.59326172 C-101.17507751 211.91669326 -107.61606945 208.2359294 -114.01953125 204.48828125 C-114.89311279 203.9775708 -115.76669434 203.46686035 -116.66674805 202.94067383 C-118.27587757 201.99763348 -119.88290292 201.05099127 -121.48754883 200.1003418 C-125.00687993 197.81274904 -125.00687993 197.81274904 -129 197 Z M115.34765625 200.11328125 C114.77967819 200.43897598 114.21170013 200.76467072 113.62651062 201.10023499 C111.76930893 202.16665771 109.91578163 203.23928135 108.0625 204.3125 C106.79279734 205.04470091 105.52293994 205.77663354 104.25292969 206.50830078 C102.33716944 207.61242249 100.42177802 208.7171583 98.50753784 209.82391357 C94.65580555 212.05041379 90.79273724 214.25512081 86.91796875 216.44140625 C86.03423584 216.94309326 85.15050293 217.44478027 84.23999023 217.96166992 C82.60841481 218.88775975 80.97390073 219.80869561 79.33618164 220.72387695 C77.52409357 221.75961866 75.75571179 222.87132813 74 224 C74 224.66 74 225.32 74 226 C75.12305542 226.64062378 75.12305542 226.64062378 76.26879883 227.29418945 C79.14099479 228.93296211 82.01288471 230.57226874 84.88458252 232.21191406 C86.16649474 232.94371642 87.4485173 233.67532554 88.73065186 234.40673828 C95.17507751 238.08330674 101.61606945 241.7640706 108.01953125 245.51171875 C108.89311279 246.0224292 109.76669434 246.53313965 110.66674805 247.05932617 C112.27587757 248.00236652 113.88290292 248.94900873 115.48754883 249.8996582 C119.00687993 252.18725096 119.00687993 252.18725096 123 253 C123 234.52 123 216.04 123 197 C119.93336725 197 117.98949746 198.59078463 115.34765625 200.11328125 Z M-9.4609375 271.5 C-10.39260742 272.04897949 -11.32427734 272.59795898 -12.28417969 273.16357422 C-13.30415039 273.76959473 -14.32412109 274.37561523 -15.375 275 C-17.57486405 276.29538685 -19.77541207 277.5896127 -21.9765625 278.8828125 C-22.55035645 279.22031525 -23.12415039 279.55781799 -23.71533203 279.9055481 C-30.02986957 283.61507587 -36.38770397 287.248106 -42.75 290.875 C-43.909679 291.53643899 -45.06934693 292.1978974 -46.22900391 292.859375 C-48.58993447 294.20581595 -50.95115763 295.55174234 -53.3125 296.89746094 C-59.16239447 300.23201074 -65.0077387 303.57452918 -70.8536377 306.91607666 C-73.85539526 308.63182216 -76.85739462 310.34714438 -79.859375 312.0625 C-80.85420898 312.63097656 -81.84904297 313.19945312 -82.87402344 313.78515625 C-83.5755957 314.18605469 -84.27716797 314.58695312 -85 315 C-85 315.99 -85 316.98 -85 318 C-84.30777344 318.3810791 -83.61554688 318.7621582 -82.90234375 319.15478516 C-69.49823434 326.54338104 -56.16037849 334.01486662 -42.96557617 341.77319336 C-34.41117613 346.79123307 -25.77323802 351.64936662 -17.10693359 356.47094727 C-16.11902832 357.02065186 -15.13112305 357.57035645 -14.11328125 358.13671875 C-12.81064331 358.85927856 -12.81064331 358.85927856 -11.48168945 359.59643555 C-9.73965196 360.58167643 -8.02908807 361.62367297 -6.34521484 362.70532227 C-4.05125161 364.28562629 -4.05125161 364.28562629 -1.36328125 363.578125 C3.54926669 361.27305024 8.15828985 358.53410762 12.8125 355.75 C21.31636341 350.7226242 29.86455537 345.79784732 38.5 341 C47.12413999 336.19452936 55.71030777 331.32916636 64.25 326.375 C65.25611328 325.79492188 66.26222656 325.21484375 67.29882812 324.6171875 C71.78925907 322.0000841 76.07345688 319.43992026 80 316 C79.36312256 315.64397705 78.72624512 315.2879541 78.07006836 314.92114258 C63.65658537 306.86181063 49.26168202 298.77089405 34.89111328 290.63525391 C31.88579955 288.93540664 28.87867154 287.23880665 25.87109375 285.54296875 C23.85153734 284.40369043 21.83200566 283.26436828 19.8125 282.125 C18.85045654 281.58262695 17.88841309 281.04025391 16.8972168 280.48144531 C10.88868613 277.08757784 4.92173605 273.63748466 -0.98828125 270.07421875 C-4.59642398 268.14754059 -6.14462914 269.53206638 -9.4609375 271.5 Z M-103.765625 325.625 C-104.65507813 326.16640625 -105.54453125 326.7078125 -106.4609375 327.265625 C-107.38132812 327.83796875 -108.30171875 328.4103125 -109.25 329 C-110.18585938 329.57234375 -111.12171875 330.1446875 -112.0859375 330.734375 C-114.39558109 332.1484425 -116.69988376 333.57050627 -119 335 C-115.96456324 337.38185025 -112.82289274 339.32669862 -109.46875 341.23046875 C-107.80948486 342.17515015 -107.80948486 342.17515015 -106.11669922 343.13891602 C-104.91113924 343.82178869 -103.70557265 344.50464969 -102.5 345.1875 C-101.24348545 345.90196894 -99.98714066 346.6167365 -98.73095703 347.33178711 C-96.119818 348.8177644 -93.50795364 350.30245421 -90.89550781 351.78613281 C-84.88304733 355.20173555 -78.87884887 358.63178957 -72.875 362.0625 C-72.29778198 362.39226837 -71.72056396 362.72203674 -71.12585449 363.0617981 C-56.07299199 371.66257221 -41.03391584 380.28873688 -26.07421875 389.05078125 C-24.96014648 389.70288574 -23.84607422 390.35499023 -22.69824219 391.02685547 C-20.56354823 392.27768767 -18.43003656 393.5305403 -16.29785156 394.78564453 C-15.35264648 395.33978027 -14.40744141 395.89391602 -13.43359375 396.46484375 C-12.59884521 396.955896 -11.76409668 397.44694824 -10.90405273 397.95288086 C-9.21612506 399.08031332 -9.21612506 399.08031332 -8 399 C-8 390.42 -8 381.84 -8 373 C-11.63 370.97875 -15.26 368.9575 -19 366.875 C-28.63906115 361.48982354 -38.20950411 355.99891951 -47.73291016 350.41162109 C-56.90826121 345.03441765 -66.14013817 339.75912719 -75.38598633 334.50439453 C-76.49353271 333.87388184 -77.6010791 333.24336914 -78.7421875 332.59375 C-80.33111816 331.69076172 -80.33111816 331.69076172 -81.95214844 330.76953125 C-85.65413059 328.6202228 -89.27946896 326.35856708 -92.88330078 324.04882812 C-97.23264743 321.89371933 -99.96721953 323.28751971 -103.765625 325.625 Z M84.44140625 325.5 C83.51295898 326.04897949 82.58451172 326.59795898 81.62792969 327.16357422 C80.61633789 327.76959473 79.60474609 328.37561523 78.5625 329 C76.37180251 330.29547012 74.18036679 331.5896925 71.98828125 332.8828125 C71.41757904 333.22031525 70.84687683 333.55781799 70.25888062 333.9055481 C63.95954066 337.62662106 57.60697007 341.25343174 51.25 344.875 C50.08508741 345.53932439 48.92021126 346.20371269 47.75537109 346.86816406 C45.38941203 348.21756476 43.0231554 349.56644183 40.65673828 350.91503906 C34.94533987 354.17060741 29.23835591 357.43390523 23.53088379 360.6963501 C20.62881591 362.35512759 17.72650802 364.01348491 14.82421875 365.671875 C13.86604248 366.2194043 12.90786621 366.76693359 11.9206543 367.33105469 C8.61376953 369.22070312 5.30688477 371.11035156 2 373 C2 381.58 2 390.16 2 399 C11.92413879 393.83117771 21.61448064 388.35703357 31.26464844 382.69433594 C39.06437622 378.12025829 46.89579308 373.60481602 54.75 369.125 C55.32909119 368.79450653 55.90818237 368.46401306 56.50482178 368.12350464 C61.91038252 365.03856213 67.31799777 361.9572328 72.72705078 358.87841797 C80.82690016 354.26766143 88.92111047 349.64742744 97 345 C98.32427002 344.23840576 98.32427002 344.23840576 99.67529297 343.46142578 C101.87251965 342.1919664 104.0629811 340.91194224 106.25 339.625 C106.8581958 339.27381104 107.4663916 338.92262207 108.09301758 338.56079102 C109.43075319 337.7638292 110.72271057 336.89062698 112 336 C112 335.34 112 334.68 112 334 C108.73486809 332.15637057 105.46201438 330.32690521 102.1875 328.5 C100.7943457 327.71302734 100.7943457 327.71302734 99.37304688 326.91015625 C98.48037109 326.41386719 97.58769531 325.91757812 96.66796875 325.40625 C95.84578857 324.94541016 95.0236084 324.48457031 94.17651367 324.00976562 C90.11855814 322.12712916 88.03714111 323.35248278 84.44140625 325.5 Z " fill="#000000" transform="translate(202,3)"/>
</svg>
